<mxfile host="Electron" modified="2023-09-18T07:48:44.831Z" agent="Mozilla/5.0 (Windows NT 10.0; Win64; x64) AppleWebKit/537.36 (KHTML, like Gecko) draw.io/21.5.1 Chrome/112.0.5615.204 Electron/24.6.0 Safari/537.36" etag="1hg4rIyBcqccI84gaFvx" version="21.5.1" type="device" pages="2">
  <diagram id="d7nroRAtxDbtay4YLN2V" name="Old-salice">
    <mxGraphModel dx="1500" dy="899" grid="0" gridSize="10" guides="1" tooltips="1" connect="1" arrows="1" fold="1" page="1" pageScale="1" pageWidth="40000" pageHeight="20000" math="0" shadow="0">
      <root>
        <mxCell id="0" />
        <mxCell id="1" parent="0" />
        <mxCell id="75UP8MYDFvQBhDGf_e9d-10" style="edgeStyle=orthogonalEdgeStyle;rounded=0;orthogonalLoop=1;jettySize=auto;html=1;entryX=0.5;entryY=0;entryDx=0;entryDy=0;fontSize=18;" parent="1" source="75UP8MYDFvQBhDGf_e9d-1" target="75UP8MYDFvQBhDGf_e9d-2" edge="1">
          <mxGeometry relative="1" as="geometry" />
        </mxCell>
        <mxCell id="75UP8MYDFvQBhDGf_e9d-1" value="Start" style="ellipse;whiteSpace=wrap;html=1;fontSize=18;" parent="1" vertex="1">
          <mxGeometry x="460" y="40" width="70" height="40" as="geometry" />
        </mxCell>
        <mxCell id="75UP8MYDFvQBhDGf_e9d-11" style="edgeStyle=orthogonalEdgeStyle;rounded=0;orthogonalLoop=1;jettySize=auto;html=1;entryX=0;entryY=0.5;entryDx=0;entryDy=0;fontSize=18;" parent="1" source="75UP8MYDFvQBhDGf_e9d-2" target="75UP8MYDFvQBhDGf_e9d-3" edge="1">
          <mxGeometry relative="1" as="geometry" />
        </mxCell>
        <mxCell id="75UP8MYDFvQBhDGf_e9d-18" style="edgeStyle=orthogonalEdgeStyle;rounded=0;orthogonalLoop=1;jettySize=auto;html=1;entryX=0.5;entryY=0;entryDx=0;entryDy=0;fontSize=18;" parent="1" source="75UP8MYDFvQBhDGf_e9d-2" target="75UP8MYDFvQBhDGf_e9d-6" edge="1">
          <mxGeometry relative="1" as="geometry" />
        </mxCell>
        <mxCell id="75UP8MYDFvQBhDGf_e9d-2" value="Inactive" style="ellipse;whiteSpace=wrap;html=1;fontSize=18;" parent="1" vertex="1">
          <mxGeometry x="460" y="160" width="100" height="60" as="geometry" />
        </mxCell>
        <mxCell id="75UP8MYDFvQBhDGf_e9d-12" style="edgeStyle=orthogonalEdgeStyle;rounded=0;orthogonalLoop=1;jettySize=auto;html=1;entryX=0.5;entryY=0;entryDx=0;entryDy=0;fontSize=18;" parent="1" source="75UP8MYDFvQBhDGf_e9d-3" target="75UP8MYDFvQBhDGf_e9d-4" edge="1">
          <mxGeometry relative="1" as="geometry" />
        </mxCell>
        <mxCell id="75UP8MYDFvQBhDGf_e9d-3" value="Spinta" style="ellipse;whiteSpace=wrap;html=1;fontSize=18;" parent="1" vertex="1">
          <mxGeometry x="870" y="160" width="100" height="60" as="geometry" />
        </mxCell>
        <mxCell id="75UP8MYDFvQBhDGf_e9d-13" style="edgeStyle=orthogonalEdgeStyle;rounded=0;orthogonalLoop=1;jettySize=auto;html=1;entryX=0.5;entryY=0;entryDx=0;entryDy=0;fontSize=18;" parent="1" source="75UP8MYDFvQBhDGf_e9d-4" target="75UP8MYDFvQBhDGf_e9d-5" edge="1">
          <mxGeometry relative="1" as="geometry" />
        </mxCell>
        <mxCell id="75UP8MYDFvQBhDGf_e9d-4" value="Frenata&lt;br style=&quot;font-size: 18px;&quot;&gt;" style="ellipse;whiteSpace=wrap;html=1;fontSize=18;" parent="1" vertex="1">
          <mxGeometry x="865" y="400" width="110" height="60" as="geometry" />
        </mxCell>
        <mxCell id="75UP8MYDFvQBhDGf_e9d-14" style="edgeStyle=orthogonalEdgeStyle;rounded=0;orthogonalLoop=1;jettySize=auto;html=1;entryX=1;entryY=0.5;entryDx=0;entryDy=0;fontSize=18;" parent="1" source="75UP8MYDFvQBhDGf_e9d-5" target="75UP8MYDFvQBhDGf_e9d-6" edge="1">
          <mxGeometry relative="1" as="geometry" />
        </mxCell>
        <mxCell id="75UP8MYDFvQBhDGf_e9d-5" value="Quasi fine corsa" style="ellipse;whiteSpace=wrap;html=1;fontSize=18;" parent="1" vertex="1">
          <mxGeometry x="865" y="560" width="110" height="60" as="geometry" />
        </mxCell>
        <mxCell id="75UP8MYDFvQBhDGf_e9d-19" style="edgeStyle=orthogonalEdgeStyle;rounded=0;orthogonalLoop=1;jettySize=auto;html=1;entryX=1;entryY=0.5;entryDx=0;entryDy=0;exitX=0.5;exitY=1;exitDx=0;exitDy=0;fontSize=18;dashed=1;" parent="1" source="75UP8MYDFvQBhDGf_e9d-6" target="75UP8MYDFvQBhDGf_e9d-9" edge="1">
          <mxGeometry relative="1" as="geometry" />
        </mxCell>
        <mxCell id="75UP8MYDFvQBhDGf_e9d-47" style="edgeStyle=orthogonalEdgeStyle;rounded=0;orthogonalLoop=1;jettySize=auto;html=1;entryX=1;entryY=0.5;entryDx=0;entryDy=0;fontSize=18;" parent="1" source="75UP8MYDFvQBhDGf_e9d-6" target="75UP8MYDFvQBhDGf_e9d-46" edge="1">
          <mxGeometry relative="1" as="geometry" />
        </mxCell>
        <mxCell id="75UP8MYDFvQBhDGf_e9d-6" value="Fine corsa" style="ellipse;whiteSpace=wrap;html=1;fontSize=18;" parent="1" vertex="1">
          <mxGeometry x="455" y="550" width="110" height="80" as="geometry" />
        </mxCell>
        <mxCell id="75UP8MYDFvQBhDGf_e9d-16" style="edgeStyle=orthogonalEdgeStyle;rounded=0;orthogonalLoop=1;jettySize=auto;html=1;entryX=0.5;entryY=1;entryDx=0;entryDy=0;fontSize=18;" parent="1" source="75UP8MYDFvQBhDGf_e9d-7" target="75UP8MYDFvQBhDGf_e9d-8" edge="1">
          <mxGeometry relative="1" as="geometry" />
        </mxCell>
        <mxCell id="75UP8MYDFvQBhDGf_e9d-7" value="Ritorno vel&lt;br style=&quot;font-size: 18px;&quot;&gt;" style="ellipse;whiteSpace=wrap;html=1;fontSize=18;" parent="1" vertex="1">
          <mxGeometry x="135" y="410" width="120" height="60" as="geometry" />
        </mxCell>
        <mxCell id="75UP8MYDFvQBhDGf_e9d-17" style="edgeStyle=orthogonalEdgeStyle;rounded=0;orthogonalLoop=1;jettySize=auto;html=1;entryX=0;entryY=0.5;entryDx=0;entryDy=0;fontSize=18;" parent="1" source="75UP8MYDFvQBhDGf_e9d-8" target="75UP8MYDFvQBhDGf_e9d-2" edge="1">
          <mxGeometry relative="1" as="geometry" />
        </mxCell>
        <mxCell id="75UP8MYDFvQBhDGf_e9d-8" value="Ritorno tor" style="ellipse;whiteSpace=wrap;html=1;fontSize=18;" parent="1" vertex="1">
          <mxGeometry x="140" y="155" width="110" height="70" as="geometry" />
        </mxCell>
        <mxCell id="75UP8MYDFvQBhDGf_e9d-9" value="Spinta chiusura" style="ellipse;whiteSpace=wrap;html=1;fontSize=18;dashed=1;" parent="1" vertex="1">
          <mxGeometry x="347" y="699" width="140" height="90" as="geometry" />
        </mxCell>
        <mxCell id="75UP8MYDFvQBhDGf_e9d-51" style="edgeStyle=orthogonalEdgeStyle;rounded=0;orthogonalLoop=1;jettySize=auto;html=1;fontSize=18;" parent="1" source="75UP8MYDFvQBhDGf_e9d-20" target="75UP8MYDFvQBhDGf_e9d-45" edge="1">
          <mxGeometry relative="1" as="geometry" />
        </mxCell>
        <mxCell id="75UP8MYDFvQBhDGf_e9d-20" value="&lt;h1&gt;Legenda&lt;/h1&gt;&lt;p&gt;P=pulses&lt;/p&gt;&lt;p&gt;V=velocity&lt;/p&gt;&lt;p&gt;t=time&lt;/p&gt;&lt;p&gt;T=torque&lt;/p&gt;" style="text;html=1;strokeColor=none;fillColor=none;spacing=5;spacingTop=-20;whiteSpace=wrap;overflow=hidden;rounded=0;fontSize=18;" parent="1" vertex="1">
          <mxGeometry x="1080" y="30" width="240" height="650" as="geometry" />
        </mxCell>
        <mxCell id="75UP8MYDFvQBhDGf_e9d-21" value="" style="endArrow=none;html=1;rounded=0;fontSize=18;" parent="1" edge="1">
          <mxGeometry width="50" height="50" relative="1" as="geometry">
            <mxPoint x="50" y="1080" as="sourcePoint" />
            <mxPoint x="1220" y="1080" as="targetPoint" />
          </mxGeometry>
        </mxCell>
        <mxCell id="75UP8MYDFvQBhDGf_e9d-22" value="" style="endArrow=none;html=1;rounded=0;fontSize=18;" parent="1" edge="1">
          <mxGeometry width="50" height="50" relative="1" as="geometry">
            <mxPoint x="50" y="1080" as="sourcePoint" />
            <mxPoint x="50" y="1050" as="targetPoint" />
          </mxGeometry>
        </mxCell>
        <mxCell id="75UP8MYDFvQBhDGf_e9d-23" value="0" style="text;html=1;strokeColor=none;fillColor=none;align=center;verticalAlign=middle;whiteSpace=wrap;rounded=0;fontSize=18;" parent="1" vertex="1">
          <mxGeometry x="20" y="1100" width="60" height="30" as="geometry" />
        </mxCell>
        <mxCell id="75UP8MYDFvQBhDGf_e9d-24" value="" style="endArrow=none;html=1;rounded=0;fontSize=18;" parent="1" edge="1">
          <mxGeometry width="50" height="50" relative="1" as="geometry">
            <mxPoint x="280" y="1080" as="sourcePoint" />
            <mxPoint x="280" y="1050" as="targetPoint" />
          </mxGeometry>
        </mxCell>
        <mxCell id="75UP8MYDFvQBhDGf_e9d-25" value="Pstart" style="text;html=1;strokeColor=none;fillColor=none;align=center;verticalAlign=middle;whiteSpace=wrap;rounded=0;fontSize=18;" parent="1" vertex="1">
          <mxGeometry x="250" y="1100" width="60" height="30" as="geometry" />
        </mxCell>
        <mxCell id="75UP8MYDFvQBhDGf_e9d-26" value="" style="endArrow=none;html=1;rounded=0;fontSize=18;" parent="1" edge="1">
          <mxGeometry width="50" height="50" relative="1" as="geometry">
            <mxPoint x="880" y="1080.0000000000002" as="sourcePoint" />
            <mxPoint x="880" y="1050.0000000000002" as="targetPoint" />
          </mxGeometry>
        </mxCell>
        <mxCell id="75UP8MYDFvQBhDGf_e9d-27" value="Pstop" style="text;html=1;strokeColor=none;fillColor=none;align=center;verticalAlign=middle;whiteSpace=wrap;rounded=0;fontSize=18;" parent="1" vertex="1">
          <mxGeometry x="850" y="1100" width="60" height="30" as="geometry" />
        </mxCell>
        <mxCell id="75UP8MYDFvQBhDGf_e9d-28" value="" style="endArrow=none;html=1;rounded=0;fontSize=18;" parent="1" edge="1">
          <mxGeometry width="50" height="50" relative="1" as="geometry">
            <mxPoint x="1070" y="1080.0000000000002" as="sourcePoint" />
            <mxPoint x="1070" y="1050.0000000000002" as="targetPoint" />
          </mxGeometry>
        </mxCell>
        <mxCell id="75UP8MYDFvQBhDGf_e9d-29" value="Pend" style="text;html=1;strokeColor=none;fillColor=none;align=center;verticalAlign=middle;whiteSpace=wrap;rounded=0;fontSize=18;" parent="1" vertex="1">
          <mxGeometry x="1040" y="1100" width="60" height="30" as="geometry" />
        </mxCell>
        <mxCell id="75UP8MYDFvQBhDGf_e9d-30" value="" style="endArrow=none;html=1;rounded=0;fontSize=18;" parent="1" edge="1">
          <mxGeometry width="50" height="50" relative="1" as="geometry">
            <mxPoint x="1220" y="1080.0000000000002" as="sourcePoint" />
            <mxPoint x="1220" y="1050.0000000000002" as="targetPoint" />
          </mxGeometry>
        </mxCell>
        <mxCell id="75UP8MYDFvQBhDGf_e9d-31" value="Plength" style="text;html=1;strokeColor=none;fillColor=none;align=center;verticalAlign=middle;whiteSpace=wrap;rounded=0;fontSize=18;" parent="1" vertex="1">
          <mxGeometry x="1190" y="1100" width="60" height="30" as="geometry" />
        </mxCell>
        <mxCell id="75UP8MYDFvQBhDGf_e9d-32" value="" style="shape=flexArrow;endArrow=classic;html=1;rounded=0;fontSize=18;" parent="1" edge="1">
          <mxGeometry width="50" height="50" relative="1" as="geometry">
            <mxPoint x="60" y="990" as="sourcePoint" />
            <mxPoint x="190" y="990" as="targetPoint" />
          </mxGeometry>
        </mxCell>
        <mxCell id="75UP8MYDFvQBhDGf_e9d-33" value="Apertura" style="text;html=1;strokeColor=none;fillColor=none;align=center;verticalAlign=middle;whiteSpace=wrap;rounded=0;fontSize=18;" parent="1" vertex="1">
          <mxGeometry x="60" y="940" width="60" height="30" as="geometry" />
        </mxCell>
        <mxCell id="75UP8MYDFvQBhDGf_e9d-35" value="P&amp;gt;Pstart&lt;br&gt;e&lt;br&gt;V&amp;gt;Vmax" style="text;html=1;strokeColor=none;fillColor=none;align=center;verticalAlign=middle;whiteSpace=wrap;rounded=0;fontSize=18;" parent="1" vertex="1">
          <mxGeometry x="591" y="140" width="60" height="30" as="geometry" />
        </mxCell>
        <mxCell id="75UP8MYDFvQBhDGf_e9d-38" value="P&amp;gt;Pstop" style="text;html=1;strokeColor=none;fillColor=none;align=center;verticalAlign=middle;whiteSpace=wrap;rounded=0;fontSize=18;" parent="1" vertex="1">
          <mxGeometry x="930" y="240" width="60" height="30" as="geometry" />
        </mxCell>
        <mxCell id="75UP8MYDFvQBhDGf_e9d-39" value="P&amp;gt;Pend" style="text;html=1;strokeColor=none;fillColor=none;align=center;verticalAlign=middle;whiteSpace=wrap;rounded=0;fontSize=18;" parent="1" vertex="1">
          <mxGeometry x="940" y="470" width="60" height="30" as="geometry" />
        </mxCell>
        <mxCell id="75UP8MYDFvQBhDGf_e9d-40" value="V=0" style="text;html=1;strokeColor=none;fillColor=none;align=center;verticalAlign=middle;whiteSpace=wrap;rounded=0;fontSize=18;" parent="1" vertex="1">
          <mxGeometry x="800" y="560" width="60" height="30" as="geometry" />
        </mxCell>
        <mxCell id="75UP8MYDFvQBhDGf_e9d-41" value="P&amp;gt;Pend&lt;br&gt;e&lt;br&gt;V=0" style="text;html=1;strokeColor=none;fillColor=none;align=center;verticalAlign=middle;whiteSpace=wrap;rounded=0;fontSize=18;" parent="1" vertex="1">
          <mxGeometry x="440" y="240" width="60" height="30" as="geometry" />
        </mxCell>
        <mxCell id="75UP8MYDFvQBhDGf_e9d-42" value="ttimeout&amp;gt;tnow" style="text;html=1;strokeColor=none;fillColor=none;align=center;verticalAlign=middle;whiteSpace=wrap;rounded=0;fontSize=18;" parent="1" vertex="1">
          <mxGeometry x="350" y="560" width="60" height="30" as="geometry" />
        </mxCell>
        <mxCell id="75UP8MYDFvQBhDGf_e9d-43" value="P&amp;lt;Pstart" style="text;html=1;strokeColor=none;fillColor=none;align=center;verticalAlign=middle;whiteSpace=wrap;rounded=0;fontSize=18;" parent="1" vertex="1">
          <mxGeometry x="210" y="370" width="60" height="30" as="geometry" />
        </mxCell>
        <mxCell id="75UP8MYDFvQBhDGf_e9d-44" value="V=0" style="text;html=1;strokeColor=none;fillColor=none;align=center;verticalAlign=middle;whiteSpace=wrap;rounded=0;fontSize=18;" parent="1" vertex="1">
          <mxGeometry x="240" y="160" width="60" height="30" as="geometry" />
        </mxCell>
        <mxCell id="75UP8MYDFvQBhDGf_e9d-45" value="&lt;h1&gt;Stati&lt;/h1&gt;&lt;div&gt;&lt;ul&gt;&lt;li&gt;Start: Durante startup avviene configurazione&lt;/li&gt;&lt;li&gt;Inactive: Motore disabilitato, target 0&lt;/li&gt;&lt;li&gt;Spinta: Motore abilitato, controllo torque, frenata proporzionale a velocità&lt;/li&gt;&lt;li&gt;Frenata: Controllo velocità, target Vmin&lt;/li&gt;&lt;li&gt;Quasi fine corsa: Controllo torque, target Tend&lt;/li&gt;&lt;li&gt;Fine corsa: Motore disabilitato, target 0, inizia timer&lt;/li&gt;&lt;li&gt;Inizio Ritorno: Controllo torque, target -1.3*Tend&lt;/li&gt;&lt;li&gt;Ritorno vel: Motore abilitato, controllo velocità, target -Vmin&lt;/li&gt;&lt;li&gt;Ritorno Tor: Controllo torque, target -1.3*Tend&lt;/li&gt;&lt;/ul&gt;&lt;/div&gt;" style="text;html=1;strokeColor=none;fillColor=none;spacing=5;spacingTop=-20;whiteSpace=wrap;overflow=hidden;rounded=0;dashed=1;fontSize=18;" parent="1" vertex="1">
          <mxGeometry x="1408" y="30" width="1250" height="900" as="geometry" />
        </mxCell>
        <mxCell id="75UP8MYDFvQBhDGf_e9d-48" style="edgeStyle=orthogonalEdgeStyle;rounded=0;orthogonalLoop=1;jettySize=auto;html=1;entryX=0.5;entryY=1;entryDx=0;entryDy=0;fontSize=18;" parent="1" source="75UP8MYDFvQBhDGf_e9d-46" target="75UP8MYDFvQBhDGf_e9d-7" edge="1">
          <mxGeometry relative="1" as="geometry" />
        </mxCell>
        <mxCell id="75UP8MYDFvQBhDGf_e9d-46" value="Inizio ritorno" style="ellipse;whiteSpace=wrap;html=1;fontSize=18;" parent="1" vertex="1">
          <mxGeometry x="150" y="570" width="120" height="60" as="geometry" />
        </mxCell>
        <mxCell id="75UP8MYDFvQBhDGf_e9d-50" value="P&amp;lt;Pend" style="text;html=1;strokeColor=none;fillColor=none;align=center;verticalAlign=middle;whiteSpace=wrap;rounded=0;fontSize=18;" parent="1" vertex="1">
          <mxGeometry x="140" y="528" width="60" height="30" as="geometry" />
        </mxCell>
      </root>
    </mxGraphModel>
  </diagram>
  <diagram id="OHt1-StvFHTxbIRHiT2e" name="New-salice">
    <mxGraphModel dx="1500" dy="899" grid="1" gridSize="10" guides="1" tooltips="1" connect="1" arrows="1" fold="1" page="1" pageScale="1" pageWidth="10000" pageHeight="10000" math="0" shadow="0">
      <root>
        <mxCell id="0" />
        <mxCell id="1" parent="0" />
        <mxCell id="x2qId1gLTUc-54hMfjbq-1" style="edgeStyle=orthogonalEdgeStyle;rounded=0;orthogonalLoop=1;jettySize=auto;html=1;entryX=0.5;entryY=0;entryDx=0;entryDy=0;" edge="1" parent="1" source="Ahi4dDpyhGEP06lKEDo0-2" target="RODBaivT1vHZEJBHL-s8-1">
          <mxGeometry relative="1" as="geometry" />
        </mxCell>
        <mxCell id="Ahi4dDpyhGEP06lKEDo0-2" value="Start" style="ellipse;whiteSpace=wrap;html=1;fontSize=18;" vertex="1" parent="1">
          <mxGeometry x="445" y="40" width="70" height="40" as="geometry" />
        </mxCell>
        <mxCell id="Ahi4dDpyhGEP06lKEDo0-21" value="&lt;h1&gt;Legenda&lt;/h1&gt;&lt;p&gt;P=pulses&lt;/p&gt;&lt;p&gt;V=velocity&lt;/p&gt;&lt;p&gt;t=time&lt;/p&gt;&lt;p&gt;T=torque&lt;/p&gt;&lt;p&gt;i=current&lt;/p&gt;" style="text;html=1;strokeColor=none;fillColor=none;spacing=5;spacingTop=-20;whiteSpace=wrap;overflow=hidden;rounded=0;fontSize=18;" vertex="1" parent="1">
          <mxGeometry x="890" y="40" width="170" height="290" as="geometry" />
        </mxCell>
        <mxCell id="Ahi4dDpyhGEP06lKEDo0-22" value="" style="endArrow=none;html=1;rounded=0;fontSize=18;" edge="1" parent="1">
          <mxGeometry width="50" height="50" relative="1" as="geometry">
            <mxPoint x="50" y="1080" as="sourcePoint" />
            <mxPoint x="1220" y="1080" as="targetPoint" />
          </mxGeometry>
        </mxCell>
        <mxCell id="Ahi4dDpyhGEP06lKEDo0-23" value="" style="endArrow=none;html=1;rounded=0;fontSize=18;" edge="1" parent="1">
          <mxGeometry width="50" height="50" relative="1" as="geometry">
            <mxPoint x="50" y="1080" as="sourcePoint" />
            <mxPoint x="50" y="1050" as="targetPoint" />
          </mxGeometry>
        </mxCell>
        <mxCell id="Ahi4dDpyhGEP06lKEDo0-24" value="0" style="text;html=1;strokeColor=none;fillColor=none;align=center;verticalAlign=middle;whiteSpace=wrap;rounded=0;fontSize=18;" vertex="1" parent="1">
          <mxGeometry x="20" y="1100" width="60" height="30" as="geometry" />
        </mxCell>
        <mxCell id="Ahi4dDpyhGEP06lKEDo0-25" value="" style="endArrow=none;html=1;rounded=0;fontSize=18;" edge="1" parent="1">
          <mxGeometry width="50" height="50" relative="1" as="geometry">
            <mxPoint x="280" y="1080" as="sourcePoint" />
            <mxPoint x="280" y="1050" as="targetPoint" />
          </mxGeometry>
        </mxCell>
        <mxCell id="Ahi4dDpyhGEP06lKEDo0-26" value="Pstart" style="text;html=1;strokeColor=none;fillColor=none;align=center;verticalAlign=middle;whiteSpace=wrap;rounded=0;fontSize=18;" vertex="1" parent="1">
          <mxGeometry x="250" y="1100" width="60" height="30" as="geometry" />
        </mxCell>
        <mxCell id="Ahi4dDpyhGEP06lKEDo0-27" value="" style="endArrow=none;html=1;rounded=0;fontSize=18;" edge="1" parent="1">
          <mxGeometry width="50" height="50" relative="1" as="geometry">
            <mxPoint x="880" y="1080.0000000000002" as="sourcePoint" />
            <mxPoint x="880" y="1050.0000000000002" as="targetPoint" />
          </mxGeometry>
        </mxCell>
        <mxCell id="Ahi4dDpyhGEP06lKEDo0-28" value="Pstop" style="text;html=1;strokeColor=none;fillColor=none;align=center;verticalAlign=middle;whiteSpace=wrap;rounded=0;fontSize=18;" vertex="1" parent="1">
          <mxGeometry x="850" y="1100" width="60" height="30" as="geometry" />
        </mxCell>
        <mxCell id="Ahi4dDpyhGEP06lKEDo0-29" value="" style="endArrow=none;html=1;rounded=0;fontSize=18;" edge="1" parent="1">
          <mxGeometry width="50" height="50" relative="1" as="geometry">
            <mxPoint x="1070" y="1080.0000000000002" as="sourcePoint" />
            <mxPoint x="1070" y="1050.0000000000002" as="targetPoint" />
          </mxGeometry>
        </mxCell>
        <mxCell id="Ahi4dDpyhGEP06lKEDo0-30" value="Pend" style="text;html=1;strokeColor=none;fillColor=none;align=center;verticalAlign=middle;whiteSpace=wrap;rounded=0;fontSize=18;" vertex="1" parent="1">
          <mxGeometry x="1040" y="1100" width="60" height="30" as="geometry" />
        </mxCell>
        <mxCell id="Ahi4dDpyhGEP06lKEDo0-31" value="" style="endArrow=none;html=1;rounded=0;fontSize=18;" edge="1" parent="1">
          <mxGeometry width="50" height="50" relative="1" as="geometry">
            <mxPoint x="1220" y="1080.0000000000002" as="sourcePoint" />
            <mxPoint x="1220" y="1050.0000000000002" as="targetPoint" />
          </mxGeometry>
        </mxCell>
        <mxCell id="Ahi4dDpyhGEP06lKEDo0-32" value="Plength" style="text;html=1;strokeColor=none;fillColor=none;align=center;verticalAlign=middle;whiteSpace=wrap;rounded=0;fontSize=18;" vertex="1" parent="1">
          <mxGeometry x="1190" y="1100" width="60" height="30" as="geometry" />
        </mxCell>
        <mxCell id="Ahi4dDpyhGEP06lKEDo0-33" value="" style="shape=flexArrow;endArrow=classic;html=1;rounded=0;fontSize=18;" edge="1" parent="1">
          <mxGeometry width="50" height="50" relative="1" as="geometry">
            <mxPoint x="60" y="990" as="sourcePoint" />
            <mxPoint x="190" y="990" as="targetPoint" />
          </mxGeometry>
        </mxCell>
        <mxCell id="Ahi4dDpyhGEP06lKEDo0-34" value="Apertura" style="text;html=1;strokeColor=none;fillColor=none;align=center;verticalAlign=middle;whiteSpace=wrap;rounded=0;fontSize=18;" vertex="1" parent="1">
          <mxGeometry x="60" y="940" width="60" height="30" as="geometry" />
        </mxCell>
        <mxCell id="Ahi4dDpyhGEP06lKEDo0-43" value="&lt;h1&gt;Stati&lt;/h1&gt;&lt;div&gt;&lt;ul&gt;&lt;li&gt;Start: Durante startup avviene configurazione&lt;/li&gt;&lt;li&gt;Inactive: Motore disabilitato, target 0&lt;/li&gt;&lt;li&gt;Spinta: Motore abilitato, controllo torque, frenata proporzionale a velocità&lt;/li&gt;&lt;li&gt;Frenata: Controllo velocità, target Vmin&lt;/li&gt;&lt;li&gt;Quasi fine corsa: Controllo torque, target Tend&lt;/li&gt;&lt;li&gt;Fine corsa: Motore disabilitato, target 0, inizia timer&lt;/li&gt;&lt;li&gt;Inizio Ritorno: Controllo torque, target -1.3*Tend&lt;/li&gt;&lt;li&gt;Ritorno vel: Motore abilitato, controllo velocità, target -Vmin&lt;/li&gt;&lt;li&gt;Ritorno Tor: Controllo torque, target -1.3*Tend&lt;/li&gt;&lt;/ul&gt;&lt;/div&gt;" style="text;html=1;strokeColor=none;fillColor=none;spacing=5;spacingTop=-20;whiteSpace=wrap;overflow=hidden;rounded=0;dashed=1;fontSize=18;" vertex="1" parent="1">
          <mxGeometry x="1900" y="50" width="1250" height="900" as="geometry" />
        </mxCell>
        <mxCell id="6bnRE4H1TX9hDe4CLYRU-15" style="edgeStyle=orthogonalEdgeStyle;rounded=0;orthogonalLoop=1;jettySize=auto;html=1;entryX=0.5;entryY=0;entryDx=0;entryDy=0;" edge="1" parent="1" source="RODBaivT1vHZEJBHL-s8-1" target="RODBaivT1vHZEJBHL-s8-3">
          <mxGeometry relative="1" as="geometry" />
        </mxCell>
        <mxCell id="RODBaivT1vHZEJBHL-s8-1" value="In corsa" style="ellipse;whiteSpace=wrap;html=1;fontSize=18;" vertex="1" parent="1">
          <mxGeometry x="425" y="180" width="110" height="60" as="geometry" />
        </mxCell>
        <mxCell id="x2qId1gLTUc-54hMfjbq-4" style="edgeStyle=orthogonalEdgeStyle;rounded=0;orthogonalLoop=1;jettySize=auto;html=1;entryX=1;entryY=0.5;entryDx=0;entryDy=0;" edge="1" parent="1" source="RODBaivT1vHZEJBHL-s8-3" target="RODBaivT1vHZEJBHL-s8-4">
          <mxGeometry relative="1" as="geometry" />
        </mxCell>
        <mxCell id="6bnRE4H1TX9hDe4CLYRU-19" style="edgeStyle=orthogonalEdgeStyle;rounded=0;orthogonalLoop=1;jettySize=auto;html=1;entryX=0;entryY=0.5;entryDx=0;entryDy=0;" edge="1" parent="1" source="RODBaivT1vHZEJBHL-s8-3" target="6bnRE4H1TX9hDe4CLYRU-4">
          <mxGeometry relative="1" as="geometry" />
        </mxCell>
        <mxCell id="RODBaivT1vHZEJBHL-s8-3" value="Standby&amp;nbsp;" style="ellipse;whiteSpace=wrap;html=1;fontSize=18;" vertex="1" parent="1">
          <mxGeometry x="692.5" y="490" width="125" height="80" as="geometry" />
        </mxCell>
        <mxCell id="6bnRE4H1TX9hDe4CLYRU-16" style="edgeStyle=orthogonalEdgeStyle;rounded=0;orthogonalLoop=1;jettySize=auto;html=1;entryX=0.5;entryY=1;entryDx=0;entryDy=0;" edge="1" parent="1" source="RODBaivT1vHZEJBHL-s8-4" target="RODBaivT1vHZEJBHL-s8-1">
          <mxGeometry relative="1" as="geometry" />
        </mxCell>
        <mxCell id="6bnRE4H1TX9hDe4CLYRU-18" style="edgeStyle=orthogonalEdgeStyle;rounded=0;orthogonalLoop=1;jettySize=auto;html=1;entryX=0.5;entryY=1;entryDx=0;entryDy=0;" edge="1" parent="1" source="RODBaivT1vHZEJBHL-s8-4" target="RODBaivT1vHZEJBHL-s8-3">
          <mxGeometry relative="1" as="geometry">
            <Array as="points">
              <mxPoint x="480" y="590" />
              <mxPoint x="755" y="590" />
            </Array>
          </mxGeometry>
        </mxCell>
        <mxCell id="RODBaivT1vHZEJBHL-s8-4" value="Inizio ritorno&lt;br&gt;" style="ellipse;whiteSpace=wrap;html=1;fontSize=18;" vertex="1" parent="1">
          <mxGeometry x="417.5" y="490" width="125" height="80" as="geometry" />
        </mxCell>
        <mxCell id="x2qId1gLTUc-54hMfjbq-10" value="&lt;h1&gt;Stati&lt;/h1&gt;&lt;div&gt;&lt;ul&gt;&lt;li&gt;Start: Durante startup avviene configurazione sensori e motore&lt;/li&gt;&lt;li&gt;In corsa: Controllo velocità, vel viene moderata per assorbire energia e non trainare per quanto possibile&lt;/li&gt;&lt;li&gt;Standby fine corsa: Motore disabilitato, target 0, inizia timer spegnimento o attesa evento spinta chiusura&lt;/li&gt;&lt;li&gt;Inizio Ritorno: Controllo torque, target aumenta progressivamente&lt;/li&gt;&lt;/ul&gt;&lt;/div&gt;" style="text;html=1;strokeColor=none;fillColor=none;spacing=5;spacingTop=-20;whiteSpace=wrap;overflow=hidden;rounded=0;dashed=1;fontSize=18;" vertex="1" parent="1">
          <mxGeometry x="1090" y="40" width="650" height="900" as="geometry" />
        </mxCell>
        <mxCell id="x2qId1gLTUc-54hMfjbq-12" style="edgeStyle=orthogonalEdgeStyle;rounded=0;orthogonalLoop=1;jettySize=auto;html=1;entryX=0;entryY=0.5;entryDx=0;entryDy=0;" edge="1" parent="1" source="x2qId1gLTUc-54hMfjbq-11" target="Ahi4dDpyhGEP06lKEDo0-2">
          <mxGeometry relative="1" as="geometry" />
        </mxCell>
        <mxCell id="x2qId1gLTUc-54hMfjbq-11" value="Spinta" style="shape=process;whiteSpace=wrap;html=1;backgroundOutline=1;fontSize=17;" vertex="1" parent="1">
          <mxGeometry x="170" y="30" width="120" height="60" as="geometry" />
        </mxCell>
        <mxCell id="9l0ioro3RZlG6Wbbefkt-1" value="Evento picco corrente&lt;br&gt;o&lt;br&gt;V&amp;lt;=0" style="text;html=1;strokeColor=none;fillColor=none;align=center;verticalAlign=middle;whiteSpace=wrap;rounded=0;fontSize=18;" vertex="1" parent="1">
          <mxGeometry x="550" y="150" width="130" height="30" as="geometry" />
        </mxCell>
        <mxCell id="vxxmPa7VmcHIAF_Y8zQE-2" value="V&amp;gt;Vtocco" style="text;html=1;strokeColor=none;fillColor=none;align=center;verticalAlign=middle;whiteSpace=wrap;rounded=0;fontSize=18;" vertex="1" parent="1">
          <mxGeometry x="620" y="500" width="60" height="30" as="geometry" />
        </mxCell>
        <mxCell id="6bnRE4H1TX9hDe4CLYRU-1" value="V ~= V ritorno" style="text;html=1;strokeColor=none;fillColor=none;align=center;verticalAlign=middle;whiteSpace=wrap;rounded=0;fontSize=18;" vertex="1" parent="1">
          <mxGeometry x="340" y="450" width="150" height="30" as="geometry" />
        </mxCell>
        <mxCell id="6bnRE4H1TX9hDe4CLYRU-4" value="&lt;font style=&quot;font-size: 16px;&quot;&gt;SPENTO&lt;/font&gt;" style="rounded=0;whiteSpace=wrap;html=1;" vertex="1" parent="1">
          <mxGeometry x="915" y="500" width="120" height="60" as="geometry" />
        </mxCell>
        <mxCell id="6bnRE4H1TX9hDe4CLYRU-12" value="i&amp;gt;imax" style="text;html=1;strokeColor=none;fillColor=none;align=center;verticalAlign=middle;whiteSpace=wrap;rounded=0;fontSize=18;" vertex="1" parent="1">
          <mxGeometry x="470" y="600" width="140" height="30" as="geometry" />
        </mxCell>
        <mxCell id="6bnRE4H1TX9hDe4CLYRU-20" value="&lt;span style=&quot;color: rgb(0, 0, 0); font-family: Helvetica; font-size: 18px; font-style: normal; font-variant-ligatures: normal; font-variant-caps: normal; font-weight: 400; letter-spacing: normal; orphans: 2; text-align: center; text-indent: 0px; text-transform: none; widows: 2; word-spacing: 0px; -webkit-text-stroke-width: 0px; background-color: rgb(251, 251, 251); text-decoration-thickness: initial; text-decoration-style: initial; text-decoration-color: initial; float: none; display: inline !important;&quot;&gt;t&amp;gt;timeout&lt;/span&gt;&lt;br style=&quot;border-color: var(--border-color); color: rgb(0, 0, 0); font-family: Helvetica; font-size: 18px; font-style: normal; font-variant-ligatures: normal; font-variant-caps: normal; font-weight: 400; letter-spacing: normal; orphans: 2; text-align: center; text-indent: 0px; text-transform: none; widows: 2; word-spacing: 0px; -webkit-text-stroke-width: 0px; background-color: rgb(251, 251, 251); text-decoration-thickness: initial; text-decoration-style: initial; text-decoration-color: initial;&quot;&gt;" style="text;whiteSpace=wrap;html=1;" vertex="1" parent="1">
          <mxGeometry x="817.5" y="500" width="110" height="50" as="geometry" />
        </mxCell>
        <mxCell id="D6yGP-bNQvQQoxKxXj66-1" value="V misurata" style="text;html=1;strokeColor=none;fillColor=none;align=center;verticalAlign=middle;whiteSpace=wrap;rounded=0;fontSize=18;" vertex="1" parent="1">
          <mxGeometry x="355" y="80" width="135" height="30" as="geometry" />
        </mxCell>
      </root>
    </mxGraphModel>
  </diagram>
</mxfile>
